<svg data-name="Capa 2" xmlns="http://www.w3.org/2000/svg" viewBox="0.033 -0.022 610.033 403.101" width="50" height="50" class="custom-icon custom-icon-personal undefined" stroke-width="1.3" stroke-linecap="round" stroke-linejoin="round" fill="currentColor"><path class="cls-1" d="M181.611 274.067h37.256l88.322 -162.644h-65.822l-40.278 86.944 -39.533 -86.944H93.856zM430.778 100.933h-37.256l-88.322 162.644h65.822l40.278 -86.956 39.533 86.956h67.7z"/><path class="cls-1" cx="257.7" cy="307.55" r="23.79" d="M312.767 341.722A26.433 26.433 0 0 1 286.333 368.156A26.433 26.433 0 0 1 259.9 341.722A26.433 26.433 0 0 1 312.767 341.722z"/><path class="cls-1" d="M117.3 0v45.756H98.689a13.444 13.444 0 0 0 -5.489 1.111c-4.822 2.167 -13.456 7.7 -12.633 19.422 1.111 16.167 -1 104.256 -1 104.256s-0.844 21.267 -21.411 30.067c0 0 20.133 11.111 21.556 32.622l0.278 98.611a23.889 23.889 0 0 0 1.378 8.056c2.222 5.989 7.256 15.722 17.5 16.6 14.889 1.278 18.433 0 18.433 0v46.522H76.7a42.333 42.333 0 0 1 -13.622 -2.222c-13.011 -4.444 -35.944 -17.189 -38.067 -52.556v-110.156s-0.133 -15.822 -16.9 -19.456a6 6 0 0 0 -1.111 -0.133l-6.967 -0.267v-33.844h6.222a13.889 13.889 0 0 0 5.822 -1.289c4.444 -2.078 12.022 -6.789 12.911 -15.222 1.278 -12.056 0.433 -112.222 0.433 -112.222s0.422 -51.111 48.367 -55.678Zm375.489 403.056V357.333h18.611a13.333 13.333 0 0 0 5.489 -1.111c4.822 -2.156 13.456 -7.7 12.633 -19.411 -1.111 -16.167 1 -104.256 1 -104.256s0.844 -21.278 21.411 -30.067c0 0 -20.144 -11.111 -21.556 -32.633l-0.278 -98.6a23.667 23.667 0 0 0 -1.389 -8.056c-2.167 -6 -7.244 -15.722 -17.489 -16.6 -14.889 -1.278 -18.433 0 -18.433 0V0h37.7a54.556 54.556 0 0 1 30 8.767c11.367 7.478 23.1 21.167 24.589 45.989v110.211s0.144 15.833 16.911 19.467a6 6 0 0 0 1.111 0.133l6.967 0.267v33.833h-6.222a13.667 13.667 0 0 0 -5.822 1.3c-4.444 2.067 -12.022 6.778 -12.922 15.211 -1.267 12.067 -0.422 112.222 0.422 112.222s-0.4 48.267 -44.444 55.189a45.556 45.556 0 0 1 -6.967 0.489Z"/></svg>